<?xml version="1.0" standalone="no"?><!DOCTYPE svg PUBLIC "-//W3C//DTD SVG 1.1//EN" "http://www.w3.org/Graphics/SVG/1.1/DTD/svg11.dtd"><svg t="1611616566789" class="icon" viewBox="0 0 1024 1024" version="1.1" xmlns="http://www.w3.org/2000/svg" p-id="2576" xmlns:xlink="http://www.w3.org/1999/xlink" width="200" height="200"><defs><style type="text/css"></style></defs><path d="M437 912.5c-6.6 0-13-2.6-17.7-7.3L118.8 604.7c-9.8-9.8-9.8-25.6 0-35.4l450.5-450.5c6-6.1 14.8-8.6 23.1-6.7L838.1 167c9.5 2.1 16.8 9.5 19 19L912 431.7c1.9 8.4-0.7 17.1-6.7 23.1L454.7 905.2c-4.7 4.7-11 7.3-17.7 7.3zM171.9 587L437 852.1 860.1 429l-48.4-216.8-216.8-48.4-423 423.2z" fill="#333333" p-id="2577"></path><path d="M650.4 466.6c-27.4 0-53.2-10.7-72.5-30-19.4-19.4-30-45.1-30-72.5s10.7-53.2 30-72.5c19.4-19.4 45.1-30 72.5-30s53.2 10.7 72.5 30c19.4 19.4 30 45.1 30 72.5s-10.7 53.2-30 72.5c-19.3 19.3-45.1 30-72.5 30z m0-155.1c-14 0-27.2 5.5-37.2 15.4-9.9 9.9-15.4 23.1-15.4 37.2 0 14 5.5 27.2 15.4 37.2 9.9 9.9 23.1 15.4 37.2 15.4 14 0 27.2-5.5 37.2-15.4 9.9-9.9 15.4-23.1 15.4-37.2 0-14-5.5-27.2-15.4-37.2-9.9-10-23.1-15.4-37.2-15.4zM437.7 770.9c-6.4 0-12.8-2.4-17.7-7.3L260.4 604c-9.8-9.8-9.8-25.6 0-35.4 9.8-9.8 25.6-9.8 35.4 0l159.6 159.6c9.8 9.8 9.8 25.6 0 35.4-4.9 4.9-11.3 7.3-17.7 7.3z" fill="#333333" p-id="2578"></path></svg>