<?xml version="1.0" standalone="no"?><!DOCTYPE svg PUBLIC "-//W3C//DTD SVG 1.1//EN" "http://www.w3.org/Graphics/SVG/1.1/DTD/svg11.dtd"><svg t="1611730004349" class="icon" viewBox="0 0 1024 1024" version="1.1" xmlns="http://www.w3.org/2000/svg" p-id="590" xmlns:xlink="http://www.w3.org/1999/xlink" width="200" height="200"><defs><style type="text/css"></style></defs><path d="M301.562 513.18500001c0.246 0.246 0.513 0.454 0.766 0.68999999L602.221 813.767c14.231 14.24 37.291 14.24 51.529 0 14.241-14.231 14.241-37.291 0-51.529l-274.851-274.859 274.849-274.85100001c14.241-14.23699999 14.24100001-37.301 0-51.53199998-7.116-7.119-16.436-10.682-25.764-10.68200001a36.325 36.325 0 0 0-25.763 10.682l-299.90500001 299.901c-0.246 0.234-0.51 0.438-0.75099999 0.678-7.129 7.13-10.685 16.469-10.674 25.804-0.006 9.33700001 3.55 18.676 10.674 25.804z" p-id="591"></path></svg>