<?xml version="1.0" standalone="no"?><!DOCTYPE svg PUBLIC "-//W3C//DTD SVG 1.1//EN" "http://www.w3.org/Graphics/SVG/1.1/DTD/svg11.dtd"><svg t="1614867933526" class="icon" viewBox="0 0 1024 1024" version="1.1" xmlns="http://www.w3.org/2000/svg" p-id="2171" xmlns:xlink="http://www.w3.org/1999/xlink" width="200" height="200"><defs><style type="text/css"></style></defs><path d="M513.5 70C757.334 70 955 267.666 955 511.5S757.334 953 513.5 953 72 755.334 72 511.5 269.666 70 513.5 70z m0 59.786c-210.815 0-381.714 170.9-381.714 381.714 0 210.815 170.9 381.714 381.714 381.714 210.815 0 381.714-170.9 381.714-381.714 0-210.815-170.9-381.714-381.714-381.714z m-88.352 211.11l87.44 87.44 86.656-86.655c11.558-11.557 30.224-11.673 41.923-0.347l0.353 0.347c11.557 11.557 11.673 30.224 0.346 41.923l-0.346 0.353-86.01 86.009h77.563c16.51 0 29.893 13.383 29.893 29.893s-13.384 29.893-29.893 29.893h-88.53v45.99h120.723c16.51 0 29.893 13.383 29.893 29.893s-13.384 29.893-29.893 29.893H544.543v73.275c0 16.344-13.117 29.625-29.399 29.89l-0.494 0.003c-16.345 0-29.626-13.117-29.89-29.399l-0.003-0.494-0.001-73.275H364.034c-16.51 0-29.893-13.383-29.893-29.893s13.383-29.893 29.893-29.893h120.722v-45.99h-88.53c-16.509 0-29.893-13.383-29.893-29.893s13.384-29.893 29.894-29.893h73.439l-86.794-86.794c-11.674-11.674-11.674-30.602 0-42.276 11.674-11.674 30.602-11.674 42.276 0z" fill="#333333" p-id="2172"></path></svg>