<?xml version="1.0" standalone="no"?><!DOCTYPE svg PUBLIC "-//W3C//DTD SVG 1.1//EN" "http://www.w3.org/Graphics/SVG/1.1/DTD/svg11.dtd"><svg t="1614571546491" class="icon" viewBox="0 0 1024 1024" version="1.1" xmlns="http://www.w3.org/2000/svg" p-id="14410" xmlns:xlink="http://www.w3.org/1999/xlink" width="200" height="200"><defs><style type="text/css"></style></defs><path d="M628.7 485.1H399.5c-17.6 0-31.8-14.3-31.8-31.8 0-17.6 14.3-31.8 31.8-31.8h229.2c17.6 0 31.8 14.3 31.8 31.8 0.1 17.6-14.2 31.8-31.8 31.8zM628.7 580.6H399.5c-17.6 0-31.8-14.3-31.8-31.8 0-17.6 14.3-31.8 31.8-31.8h229.2c17.6 0 31.8 14.3 31.8 31.8 0.1 17.6-14.2 31.8-31.8 31.8z" fill="#040000" p-id="14411"></path><path d="M514.1 676.2c-17.6 0-31.8-14.3-31.8-31.8V491.5c0-17.6 14.3-31.8 31.8-31.8s31.8 14.3 31.8 31.8v152.8c0 17.6-14.2 31.9-31.8 31.9zM571.4 475.6c-17.6 0-31.8-14.3-31.8-31.8v-57.3c0-17.6 14.3-31.8 31.8-31.8s31.8 14.3 31.8 31.8v57.3c0 17.5-14.2 31.8-31.8 31.8zM456.8 475.6c-17.6 0-31.8-14.3-31.8-31.8v-57.3c0-17.6 14.3-31.8 31.8-31.8 17.6 0 31.8 14.3 31.8 31.8v57.3c0 17.5-14.2 31.8-31.8 31.8z" fill="#040000" p-id="14412"></path><path d="M826.7 867.2H201.5c-55.9 0-101.3-48.6-101.3-108.3v-125c0-28.6 10.7-55.6 30.1-76l14.5-15.3c16.9-17.7 16.9-46.5 0-64.2l-14.5-15.3c-19.4-20.4-30.1-47.4-30.1-76v-125c0-59.7 45.5-108.3 101.3-108.3h625.1c55.9 0 101.3 48.6 101.3 108.3v125c0 28.6-10.7 55.6-30.1 76l-14.5 15.3c-16.9 17.7-16.9 46.5 0 64.2l14.5 15.3c19.4 20.4 30.1 47.4 30.1 76v125c0.1 59.7-45.4 108.3-101.2 108.3zM201.5 217.7c-20.8 0-37.7 20-37.7 44.6v125c0 12 4.6 23.7 12.5 32.1l14.5 15.3c39.9 41.9 39.9 110.1 0 152l-14.5 15.2c-8 8.4-12.5 20.1-12.5 32.1v125c0 24.2 17.2 44.6 37.7 44.6h625.1c20.4 0 37.7-20.4 37.7-44.6V634c0-12-4.6-23.7-12.5-32.1l-14.5-15.3c-39.9-41.9-39.9-110.1 0-152l14.5-15.3c8-8.4 12.5-20.1 12.5-32.1v-125c0-24.2-17.2-44.6-37.7-44.6H201.5z m658.8 238.8h0.2-0.2z" fill="#040000" p-id="14413"></path></svg>